<svg width="24" height="24" viewBox="0 0 24 24" fill="none" xmlns="http://www.w3.org/2000/svg">
<path fill-rule="evenodd" clip-rule="evenodd" d="M16.9393 20.0607C17.5251 20.6464 18.4749 20.6464 19.0607 20.0607L21.7071 17.4142C22.0976 17.0237 22.0976 16.3905 21.7071 16C21.3166 15.6095 20.6834 15.6095 20.2929 16L19 17.2929V4.5C19 3.94771 18.5523 3.5 18 3.5C17.4477 3.5 17 3.94771 17 4.5V17.2929L15.7071 16C15.3166 15.6095 14.6834 15.6095 14.2929 16C13.9024 16.3905 13.9024 17.0237 14.2929 17.4142L16.9393 20.0607Z" fill="#111317"/>
<path d="M6 19.5C6 18.9477 5.55228 18.5 5 18.5H3C2.44772 18.5 2 18.9477 2 19.5C2 20.0523 2.44772 20.5 3 20.5H5C5.55228 20.5 6 20.0523 6 19.5Z" fill="#111317"/>
<path d="M9 14.5C9 13.9477 8.55228 13.5 8 13.5H3C2.44772 13.5 2 13.9477 2 14.5C2 15.0523 2.44772 15.5 3 15.5H8C8.55228 15.5 9 15.0523 9 14.5Z" fill="#111317"/>
<path d="M11 9.5C11 8.94772 10.5523 8.5 10 8.5H3C2.44772 8.5 2 8.94772 2 9.5C2 10.0523 2.44772 10.5 3 10.5H10C10.5523 10.5 11 10.0523 11 9.5Z" fill="#111317"/>
<path d="M13 4.5C13 3.94772 12.5523 3.5 12 3.5H3C2.44772 3.5 2 3.94772 2 4.5C2 5.05228 2.44772 5.5 3 5.5H12C12.5523 5.5 13 5.05228 13 4.5Z" fill="#111317"/>
</svg>
