<svg width="24" height="24" viewBox="0 0 24 24" fill="none" xmlns="http://www.w3.org/2000/svg">
<path fill-rule="evenodd" clip-rule="evenodd" d="M10.4572 4.62835L4.62835 10.4572C3.7763 11.3093 3.7763 12.6907 4.62835 13.5428L10.4572 19.3717C11.3093 20.2237 12.6907 20.2237 13.5428 19.3717L19.3717 13.5428C20.2237 12.6907 20.2237 11.3093 19.3717 10.4572L13.5428 4.62835C12.6907 3.7763 11.3093 3.7763 10.4572 4.62835ZM3.08558 8.91446C1.38147 10.6186 1.38147 13.3815 3.08557 15.0856L8.91446 20.9145C10.6186 22.6186 13.3815 22.6186 15.0856 20.9145L20.9145 15.0856C22.6186 13.3815 22.6186 10.6186 20.9145 8.91447L15.0856 3.08558C13.3815 1.38147 10.6186 1.38147 8.91447 3.08557L3.08558 8.91446ZM8.46449 11.2929C8.07397 11.6834 8.07397 12.3166 8.46449 12.7071L11.2929 15.5355C11.6834 15.9261 12.3166 15.9261 12.7071 15.5355L15.5356 12.7071C15.9261 12.3166 15.9261 11.6834 15.5356 11.2929L12.7071 8.46447C12.3166 8.07394 11.6834 8.07394 11.2929 8.46447L8.46449 11.2929Z" fill="black"/>
</svg>
